<svg xmlns="http://www.w3.org/2000/svg" viewBox="0 0 1600 470" role="img" aria-labelledby="title desc"><title id="title">Bashar Al-Muntaser — LLM Engineer</title><desc id="desc">AI engineer at a workstation with a neural network background and exact profile typography.</desc><defs><linearGradient id="shade" x1="0" x2="1"><stop stop-color="#050816" stop-opacity=".98"/><stop offset=".44" stop-color="#071126" stop-opacity=".93"/><stop offset=".75" stop-color="#071126" stop-opacity=".24"/><stop offset="1" stop-color="#071126" stop-opacity="0"/></linearGradient><linearGradient id="edge" x1="0" x2="1"><stop stop-color="#7c5cff"/><stop offset=".5" stop-color="#25d8ff"/><stop offset="1" stop-color="#ef63ff"/></linearGradient></defs><image href="./hero-illustration.jpg" x="0" y="0" width="1600" height="470" preserveAspectRatio="xMidYMid slice"/><rect width="1600" height="470" rx="26" fill="url(#shade)"/><rect x="1" y="1" width="1598" height="468" rx="25" fill="none" stroke="#25385f"/><path d="M70 62h76" stroke="#4cdbff" stroke-width="5"/><text x="70" y="116" fill="#f6f8ff" font-family="Arial,Helvetica,sans-serif" font-size="56" font-weight="700">Bashar Al-Muntaser</text><text x="74" y="163" fill="#a9edff" font-family="Arial,Helvetica,sans-serif" font-size="21" letter-spacing="7">L L M   E N G I N E E R</text><text x="74" y="214" fill="#78e5ff" font-family="Arial,Helvetica,sans-serif" font-size="19">Generative AI  •  RAG  •  AI Agents  •  Multimodal AI</text><text x="74" y="269" fill="#d5dff5" font-family="Arial,Helvetica,sans-serif" font-size="20">Building reliable, production-oriented AI systems</text><text x="74" y="301" fill="#d5dff5" font-family="Arial,Helvetica,sans-serif" font-size="20">from intelligent orchestration to multimodal retrieval.</text><g font-family="Arial,Helvetica,sans-serif" font-size="14"><rect x="74" y="344" width="128" height="38" rx="10" fill="#101b39" stroke="#2d9dff"/><text x="99" y="368" fill="#91eaff">◉  GitHub</text><rect x="214" y="344" width="146" height="38" rx="10" fill="#101b39" stroke="#25d8ff"/><text x="239" y="368" fill="#91eaff">in  LinkedIn</text><rect x="372" y="344" width="119" height="38" rx="10" fill="#251332" stroke="#d45bff"/><text x="398" y="368" fill="#f0a8ff">✉  Email</text><rect x="503" y="344" width="157" height="38" rx="10" fill="#101b39" stroke="#7080aa"/><text x="524" y="368" fill="#d4ddf3">⌖  Sana'a, Yemen</text></g><g font-family="Arial,Helvetica,sans-serif" font-size="13" letter-spacing="1"><rect x="74" y="407" width="138" height="34" rx="17" fill="#111d3b" stroke="#2d9dff"/><text x="98" y="429" fill="#8ceaff">RELIABILITY</text><rect x="224" y="407" width="126" height="34" rx="17" fill="#17173d" stroke="#806eff"/><text x="253" y="429" fill="#c0b5ff">EVALUATION</text><rect x="362" y="407" width="145" height="34" rx="17" fill="#251332" stroke="#d45bff"/><text x="385" y="429" fill="#efadff">OBSERVABILITY</text></g></svg>